{"title":"The.Wave.2015.BRRip.480p.x264.AAC-VYTO [P2PDL]","uid":12933733,"size":428475267,"categoryP":"video","categoryS":"movies","magnet":"?xt=urn:btih:a87da71a06274614904041828d1f46de1feda18f&amp;dn=The.Wave.2015.BRRip.480p.x264.AAC-VYTO+%5BP2PDL%5D&amp;tr=udp%3A%2F%2Ftracker.leechers-paradise.org%3A6969&amp;tr=udp%3A%2F%2Fzer0day.ch%3A1337&amp;tr=udp%3A%2F%2Fopen.demonii.com%3A1337&amp;tr=udp%3A%2F%2Ftracker.coppersurfer.tk%3A6969&amp;tr=udp%3A%2F%2Fexodus.desync.com%3A6969","seeders":6,"leechers":4,"uploader":"VYTOP2PDL","files":7,"time":1449552786,"description":"The.Wave.2015.BRRip.480p.x264.AAC-VYTO\r\n\r\n\r\nGenre: Action, Drama, Thriller    \nhttp://www.imdb.com/title/tt3616916/\r\n\r\n\r\nGeneral\r\nFormat                         : MPEG-4\r\nFile size                      : 402 MiB\r\nDuration                       : 1h 44mn\r\nOverall bit rate               : 535 Kbps\r\n\r\nVideo\r\nFormat                         : AVC\r\nBit rate                       : 500 Kbps\r\nWidth                          : 720 pixels\r\nHeight                         : 304 pixels\r\nDisplay aspect ratio           : 2.35:1\r\nFrame rate mode                : Constant\r\nFrame rate                     : 24.000 fps\r\nBit depth                      : 8 bits\r\nStream size                    : 375 MiB (93%)\r\nWriting library                : x264\r\n\r\nAudio\r\nFormat                         : AAC\r\nBit rate mode                  : Variable\r\nBit rate                       : 32.0 Kbps\r\nChannel(s)                     : 2 channels \r\nChannel positions              : Front: L R\r\nSampling rate                  : 48.0 KHz\r\nStream size                    : 24.0 MiB (6%)\r\nLanguage                       : Norwegian\r\n\r\nSubtitle                       : Yes (English)\r\n\r\nScreen Shots:\r\n \nhttp://ititli.com/CR \nhttp://ititli.com/Cy \nhttp://ititli.com/C3 \nhttp://ititli.com/CE \nhttp://ititli.com/CQ \nhttp://ititli.com/CS \nhttp://ititli.com/CZ\r\n\r\n----------------------------------------------------------------------------------------------------\r\n\r\n\r\nEncoder Notes: Looking For Early Access To Anything You Can Provide WEBDL, DVDScr, DVDR, BluRay,\r\nDirect Audio, Music Releases and Seedboxes. If You Got anything to offer please contact us.\r\n\r\nSupport us by donating BC - 1FgwdzPsd1y25Gea8wP1qni35uGCtmkRCD\r\n\r\nSend some love!\r\nFind us and join us!","torrent":{"xt":"urn:btih:a87da71a06274614904041828d1f46de1feda18f","amp;dn":"The.Wave.2015.BRRip.480p.x264.AAC-VYTO+%5BP2PDL%5D","amp;tr":["udp%3A%2F%2Ftracker.leechers-paradise.org%3A6969","udp%3A%2F%2Fzer0day.ch%3A1337","udp%3A%2F%2Fopen.demonii.com%3A1337","udp%3A%2F%2Ftracker.coppersurfer.tk%3A6969","udp%3A%2F%2Fexodus.desync.com%3A6969"],"infoHash":"a87da71a06274614904041828d1f46de1feda18f","infoHashBuffer":{"type":"Buffer","data":[168,125,167,26,6,39,70,20,144,64,65,130,141,31,70,222,31,237,161,143]},"announce":[],"urlList":[]}}